<?xml version="1.0" encoding="iso-8859-1"?>
<!-- Generator: Adobe Illustrator 19.0.0, SVG Export Plug-In . SVG Version: 6.00 Build 0)  -->
<svg version="1.1" id="Layer_1" xmlns="http://www.w3.org/2000/svg" xmlns:xlink="http://www.w3.org/1999/xlink" x="0px" y="0px"
	 viewBox="0 0 491.52 491.52" style="enable-background:new 0 0 491.52 491.52;" xml:space="preserve">
<path style="fill:#64798A;" d="M491.52,95.191c0-8.152-6.331-14.761-14.142-14.761H14.142C6.333,80.431,0,87.039,0,95.191V389.01
	h491.52V95.191z"/>
<g>
	<rect x="28.042" y="109.701" style="fill:#EBF0F3;" width="435.456" height="250.04"/>
	<path style="fill:#EBF0F3;" d="M0,389.01v27.59c0,8.153,6.333,14.761,14.142,14.761h463.235c7.812,0,14.142-6.608,14.142-14.761
		v-27.59H0z"/>
</g>
<ellipse style="fill:#44C4A1;" cx="419.942" cy="409.907" rx="6.615" ry="6.907"/>
<ellipse style="fill:#E56353;" cx="453.12" cy="409.907" rx="6.615" ry="6.907"/>
<rect x="175.667" y="431.36" style="fill:#E1E6E9;" width="140.211" height="36.378"/>
<polygon style="fill:#D5D6DB;" points="315.865,467.739 175.655,431.362 315.865,431.362 "/>
<polygon style="fill:#EBF0F3;" points="315.865,467.739 175.655,467.739 157.669,491.52 333.851,491.52 "/>
<path style="fill:#E1E6E9;" d="M180.198,261.68c65.089,0,117.853-52.765,117.853-117.853c0-11.872-1.796-23.319-5.062-34.126H67.406
	c-3.266,10.807-5.062,22.253-5.062,34.126C62.344,208.915,115.11,261.68,180.198,261.68z"/>
<path style="fill:#3A556A;" d="M429.211,109.701c6.154-8.333,10.125-18.354,11.047-29.27H325.441
	c0.921,10.916,4.894,20.937,11.047,29.27H429.211z"/>
<path style="fill:#E1E6E9;" d="M382.849,133.185c19.033,0,35.862-9.263,46.362-23.484h-92.724
	C346.989,123.922,363.816,133.185,382.849,133.185z"/>
<circle style="fill:#DC8744;" cx="180.173" cy="125.952" r="117.862"/>
<circle style="fill:#FCD462;" cx="180.173" cy="125.952" r="95.98"/>
<g>
	<path style="fill:#DC8744;" d="M176.626,193.336v-11.867c-14.857-1.515-28.194-7.422-39.995-17.715l11.867-14.142
		c9.103,7.912,18.47,12.621,28.127,14.142v-31.539c-12.251-2.924-21.221-6.774-26.91-11.544c-5.688-4.77-8.533-11.84-8.533-21.214
		c0-9.374,3.267-17.041,9.829-23.007c6.562-5.961,15.096-9.208,25.614-9.751v-8.13h10.399v8.289
		c11.92,0.873,23.192,4.935,33.816,12.198L210.27,94.013c-7.157-5.094-14.897-8.235-23.244-9.433v30.561h0.489
		c12.463,2.93,21.618,6.887,27.466,11.867c5.861,4.988,8.784,12.225,8.784,21.704c0,9.486-3.36,17.212-10.081,23.166
		c-6.721,5.967-15.598,9.215-26.658,9.757v11.702H176.626z M165.156,88.403c-2.765,2.434-4.141,5.471-4.141,9.102
		c0,3.632,1.085,6.502,3.255,8.613c2.156,2.116,6.284,4.148,12.357,6.098V84.09C171.744,84.527,167.921,85.962,165.156,88.403z
		 M199.382,159.686c3.03-2.487,4.551-5.629,4.551-9.426c0-3.79-1.19-6.8-3.572-9.023c-2.394-2.222-6.84-4.307-13.335-6.257v29.258
		C192.225,163.701,196.339,162.18,199.382,159.686z"/>
	<circle style="fill:#DC8744;" cx="382.874" cy="57.656" r="57.656"/>
</g>
<circle style="fill:#FCD462;" cx="382.874" cy="57.656" r="46.956"/>
<path style="fill:#DC8744;" d="M381.102,90.621v-5.805c-7.269-0.742-13.793-3.631-19.566-8.667l5.805-6.919
	c4.453,3.87,9.036,6.174,13.761,6.919v-15.43c-5.994-1.43-10.382-3.314-13.165-5.647c-2.784-2.333-4.175-5.793-4.175-10.378
	c0-4.585,1.599-8.336,4.809-11.256c3.211-2.915,7.385-4.504,12.531-4.77V24.69h5.087v4.055c5.832,0.427,11.346,2.414,16.544,5.967
	l-5.172,7.317c-3.501-2.492-7.288-4.029-11.372-4.615v14.951h0.24c6.098,1.433,10.576,3.369,13.436,5.805
	c2.868,2.441,4.298,5.98,4.298,10.618c0,4.641-1.643,8.421-4.931,11.334c-3.288,2.919-7.631,4.508-13.042,4.773v5.725H381.102z
	 M375.491,39.286c-1.353,1.191-2.026,2.677-2.026,4.453c0,1.777,0.531,3.181,1.592,4.214c1.055,1.035,3.074,2.029,6.046,2.983
	v-13.76C378.713,37.389,376.843,38.092,375.491,39.286z M392.235,74.159c1.482-1.217,2.226-2.754,2.226-4.611
	c0-1.854-0.583-3.327-1.747-4.414c-1.172-1.088-3.347-2.107-6.525-3.062v14.313C388.732,76.123,390.746,75.379,392.235,74.159z"/>
<g>
</g>
<g>
</g>
<g>
</g>
<g>
</g>
<g>
</g>
<g>
</g>
<g>
</g>
<g>
</g>
<g>
</g>
<g>
</g>
<g>
</g>
<g>
</g>
<g>
</g>
<g>
</g>
<g>
</g>
</svg>
