<?xml version="1.0" encoding="iso-8859-1"?>
<!-- Generator: Adobe Illustrator 19.0.0, SVG Export Plug-In . SVG Version: 6.00 Build 0)  -->
<svg version="1.1" id="Capa_1" xmlns="http://www.w3.org/2000/svg" xmlns:xlink="http://www.w3.org/1999/xlink" x="0px" y="0px"
	 viewBox="0 0 468.293 468.293" style="enable-background:new 0 0 468.293 468.293;" xml:space="preserve">
<circle style="fill:#D5D6DB;" cx="234.146" cy="56.382" r="50.719"/>
<path style="fill:#1C75A1;" d="M234.148,119.87c-51.977,0-94.114,42.136-94.114,94.114h188.227
	C328.262,162.006,286.126,119.87,234.148,119.87z"/>
<polygon style="fill:#DC8744;" points="468.293,205.194 0.002,205.194 0,239.518 24.931,239.518 24.931,462.629 59.255,462.629 
	59.255,239.518 409.04,239.518 409.04,462.629 443.365,462.629 443.365,239.518 468.29,239.518 "/>
<rect x="59.255" y="239.516" style="fill:#F6C358;" width="349.783" height="177.395"/>
<path style="fill:#DC8744;" d="M230.785,391.671v-11.175c-13.991-1.433-26.548-6.989-37.661-16.694l11.175-13.318
	c8.571,7.45,17.392,11.898,26.486,13.318v-29.7c-11.536-2.753-19.983-6.366-25.34-10.864c-5.357-4.485-8.036-11.15-8.036-19.983
	c0-8.82,3.077-16.046,9.256-21.652c6.179-5.619,14.215-8.683,24.119-9.194v-7.649h9.792v7.811
	c11.225,0.81,21.839,4.647,31.843,11.474l-9.954,14.09c-6.74-4.796-14.028-7.761-21.889-8.883v28.779h0.461
	c11.736,2.753,20.357,6.491,25.863,11.175c5.519,4.697,8.272,11.511,8.272,20.444s-3.164,16.196-9.493,21.814
	c-6.329,5.606-14.688,8.671-25.103,9.182v11.026H230.785z M219.983,292.853c-2.604,2.292-3.899,5.158-3.899,8.571
	c0,3.426,1.022,6.117,3.065,8.11c2.031,1.993,5.918,3.912,11.636,5.743v-26.486C226.187,289.203,222.587,290.561,219.983,292.853z
	 M252.213,359.978c2.853-2.342,4.286-5.307,4.286-8.883c0-3.563-1.121-6.404-3.364-8.496c-2.255-2.081-6.441-4.049-12.558-5.893
	v27.558C245.473,363.753,249.347,362.332,252.213,359.978z"/>
<g>
</g>
<g>
</g>
<g>
</g>
<g>
</g>
<g>
</g>
<g>
</g>
<g>
</g>
<g>
</g>
<g>
</g>
<g>
</g>
<g>
</g>
<g>
</g>
<g>
</g>
<g>
</g>
<g>
</g>
</svg>
